PathFileType	4	(X/Y/Z)	C:\Data\4407\4407cd05.trc
DataRate	CameraRate	NumFrames	NumMarkers	Units	OrigDataRate	OrigDataStartFrame	OrigNumFrames
200.00	200.00	      13	29	mm	200.00	1	      2000
Frame#	Time	Offset			RShoulder			RUpperArm			RElbow			RForearm			RWrist			LShoulder			LUpperArm			LElbow			LForearm			LWrist			LPSIS			RPSIS			RASIS			RThigh			RKnee			RShank			RAnkle			RHeel			RLat5			RToe			LASIS			LThigh			LKnee			LShank			LAnkle			LHeel			LLat5			LToe			
		X1	Y1	Z1	X2	Y2	Z2	X3	Y3	Z3	X4	Y4	Z4	X5	Y5	Z5	X6	Y6	Z6	X7	Y7	Z7	X8	Y8	Z8	X9	Y9	Z9	X10	Y10	Z10	X11	Y11	Z11	X12	Y12	Z12	X13	Y13	Z13	X14	Y14	Z14	X15	Y15	Z15	X16	Y16	Z16	X17	Y17	Z17	X18	Y18	Z18	X19	Y19	Z19	X20	Y20	Z20	X21	Y21	Z21	X22	Y22	Z22	X23	Y23	Z23	X24	Y24	Z24	X25	Y25	Z25	X26	Y26	Z26	X27	Y27	Z27	X28	Y28	Z28	X29	Y29	Z29	

1	0.000	303.58609	-304.95218	1425.76465	454.55466	-218.77777	1544.97900	443.72354	-377.42120	1446.18335	523.54034	-448.47833	1315.87134	484.99374	-365.97113	1171.81335	526.69385	-235.42513	1160.82825	122.19645	-143.20322	1562.16211	21.49503	-207.13959	1369.82983	-53.15632	-142.22133	1274.82202	72.94700	-34.62994	1256.79797	147.15352	25.49597	1377.85571	246.26024	-298.36298	1076.69946	295.59750	-296.46829	1068.07800	378.71613	-85.22478	1048.55164	328.54007	45.22524	798.23102	395.92755	76.82516	607.35687	351.95700	125.48367	543.63202	365.53564	140.34329	196.55595	320.81882	78.91312	160.96172	276.76926	288.31323	156.09769	383.51672	286.35535	146.68338	133.14003	-98.02144	1016.93781	176.57526	-178.46974	679.26111	135.69003	-331.05182	559.82794	186.92133	-383.72327	492.92999	217.72098	-738.43463	452.11664	268.16986	-750.67346	509.60764	212.30795	-794.39313	298.65143	321.93088	-773.45490	302.24875	
2	0.005	303.58609	-304.95218	1425.76465	454.55466	-218.77777	1544.97900	443.72354	-377.42120	1446.18335	523.54034	-448.47833	1315.87134	484.99374	-365.97113	1171.81335	526.69385	-235.42513	1160.82825	122.19645	-143.20322	1562.16211	21.49503	-207.13959	1369.82983	-53.15632	-142.22133	1274.82202	72.94700	-34.62994	1256.79797	147.15352	25.49597	1377.85571	246.26024	-298.36298	1076.69946	295.59750	-296.46829	1068.07800	378.71613	-85.22478	1048.55164	328.54007	45.22524	798.23102	395.92755	76.82516	607.35687	351.95700	125.48367	543.63202	365.53564	140.34329	196.55595	320.81882	78.91312	160.96172	276.76926	288.31323	156.09769	383.51672	286.35535	146.68338	133.14003	-98.02144	1016.93781	176.57526	-178.46974	679.26111	135.69003	-331.05182	559.82794	186.92133	-383.72327	492.92999	217.72098	-738.43463	452.11664	268.16986	-750.67346	509.60764	212.30795	-794.39313	298.65143	321.93088	-773.45490	302.24875	
3	0.010	305.17087	-304.78754	1425.44861	455.16800	-218.22098	1544.03027	444.72073	-376.11533	1443.99268	524.38428	-445.96112	1313.00415	485.76343	-362.27985	1169.42542	527.31769	-231.72433	1159.52893	123.53782	-142.23659	1561.23621	22.78838	-209.00594	1370.74622	-52.50277	-144.79034	1274.54956	73.43646	-38.35325	1252.18848	149.31616	25.86735	1370.31897	245.25681	-297.57919	1074.90601	294.67233	-296.00333	1066.22729	379.21494	-85.26339	1048.03809	329.09808	42.32438	791.07983	396.45328	71.25801	600.77826	349.13669	118.34748	538.79034	364.37857	139.90004	193.35052	318.87164	78.98735	157.32607	275.69119	288.55832	154.30669	382.37299	286.34918	143.44705	133.64470	-96.26192	1016.63904	175.66927	-173.31339	677.83978	134.76128	-324.10553	556.49896	187.31818	-378.95554	491.40945	218.62962	-734.03149	464.63760	269.38693	-744.47943	523.12683	215.05669	-796.71698	313.95123				
4	0.015	306.79001	-304.62762	1424.88660	455.89340	-217.47397	1542.81580	445.83670	-374.76904	1441.35437	525.57971	-442.92734	1309.51294	486.78671	-358.49274	1166.69751	528.11108	-227.69388	1157.84912	124.90211	-141.58711	1559.99121	23.96652	-210.86656	1371.52002	-52.06649	-148.05360	1274.01599	73.72872	-42.29652	1247.14050	150.93706	26.15270	1362.12573	244.12843	-296.83762	1073.01721	293.78015	-295.63666	1064.39575	380.43124	-83.47742	1049.85242	329.68732	38.96110	784.37903	396.04834	65.88537	595.41724	348.66901	113.57010	534.69897	362.95065	137.65065	190.05107	316.64996	77.29413	153.82269	274.97287	287.19986	151.89655	381.28311	284.28302	139.28305	134.25957	-94.69099	1015.89996	175.36041	-167.28273	676.18701	133.64154	-316.95041	552.98999	186.85004	-373.06705	489.26508	219.82860	-729.09955	476.76199	270.46100	-737.10858	535.87170	216.73212	-797.99030	329.48239	326.99149	-775.55835	331.06363	
5	0.020	308.27600	-304.28613	1424.02893	456.45090	-216.85684	1541.27844	447.02911	-373.44046	1438.52942	526.85931	-439.87283	1305.51160	488.05865	-354.24399	1163.56555	529.30469	-222.95993	1156.06128	126.16340	-140.98056	1558.39331	25.04307	-213.15933	1371.91687	-51.42419	-151.60437	1273.28516	73.68479	-46.56727	1241.46912	152.40865	26.33946	1353.20105	242.93718	-296.09146	1070.71838	293.10498	-295.27505	1062.14368	380.85269	-83.80362	1048.79407	330.29141	35.26485	778.31189	395.50610	61.47183	591.08142	348.64737	109.33261	531.77435	361.56485	133.73169	186.07686	313.86581	74.11176	150.04381	274.69037	284.38763	148.48267	380.91000	280.18832	134.44009	134.79190	-93.09557	1014.93768	174.34019	-161.70790	674.14056	132.48306	-309.47662	549.01788	185.00359	-366.48645	485.63214	221.15921	-723.29767	488.48276	271.97409	-728.75549	547.69775	218.75439	-797.23730	343.35760				
6	0.025	309.65079	-304.14880	1422.79785	457.15378	-215.96074	1539.31104	448.30917	-372.23727	1435.32080	528.56671	-436.33499	1301.23450	489.44754	-349.76007	1159.81702	530.11121	-218.50777	1153.92188	127.11301	-140.40356	1556.59521	26.18183	-215.29301	1372.00098	-50.85870	-155.40131	1272.25195	73.52171	-51.22123	1235.60315	153.37241	26.42434	1343.48206	241.81949	-295.49411	1068.50146	292.18591	-294.97513	1059.88098	381.40164	-84.06663	1047.47864	330.70660	31.50378	772.95026	394.98380	56.68108	587.01740	349.58096	104.88994	528.18079	359.60452	128.10336	181.72960	310.66721	69.27559	146.19136	274.64297	279.96130	143.73256	380.68655	274.06973	128.97484	135.34984	-91.71636	1013.57379	172.95601	-156.08302	671.92456	131.03720	-301.92410	544.74152	184.22339	-360.28479	482.52670	222.26387	-716.67712	499.62912	272.59338	-719.33917	557.65356	220.07483	-794.59064	357.49988	330.92938	-772.98022	356.97461	
7	0.030	311.04919	-303.68796	1421.15662	457.73950	-215.35677	1537.08887	449.88782	-370.87823	1431.57751	530.47443	-432.65460	1296.32947	491.27454	-345.06024	1155.81116	531.09302	-213.46944	1151.29700	127.95287	-139.95882	1554.38855	27.21894	-217.92575	1371.61194	-50.25008	-159.59560	1270.93933	72.96956	-55.89003	1229.25061	154.08624	26.52850	1333.36816	240.36670	-294.98227	1066.14490	291.36276	-294.76724	1057.47888	383.21707	-86.77451	1043.07727	330.65283	27.74895	768.06702	394.89917	51.60730	583.20984	350.05319	99.34605	524.48621	357.15543	120.83492	176.79472	306.57578	63.30875	142.11728	274.78122	274.45062	137.70221	380.78220	265.89337	122.40115	135.73698	-90.51424	1011.93018	171.41003	-150.92288	669.75043	130.02199	-293.99026	540.18719	183.58382	-354.50095	479.14310	223.50572	-709.11426	510.48972	275.06549	-709.51105	569.70160	222.55177	-795.90277	371.32330	330.89514	-768.91809	368.94986	
8	0.035	312.16281	-303.32404	1419.26233	458.31808	-214.49046	1534.54272	451.45508	-369.73120	1427.45337	532.49109	-428.75449	1291.10107	492.91812	-340.11081	1151.36523	532.19525	-208.18269	1148.42053	128.60992	-139.57813	1551.89807	28.11275	-220.45032	1370.76794	-49.69204	-164.09615	1269.35828	72.44434	-60.59465	1222.54785	154.23538	26.36131	1322.43176	240.35652	-294.35074	1061.66418	290.35983	-294.61502	1054.96387	383.99963	-87.12513	1041.62463	330.47449	24.04545	764.36566	394.97882	46.16446	579.24329	350.31223	94.35283	520.18823	355.56250	110.10461	170.82462	301.83331	55.64776	138.07767	275.17676	267.54922	130.83766	381.02249	256.17203	115.23314	136.14890	-89.50868	1009.92004	170.18759	-145.37004	667.06354	128.32901	-286.09518	535.60138	182.49661	-347.55469	475.39276	224.58446	-700.76892	520.95221	276.51913	-698.78979	579.63965	223.13097	-792.14667	384.66791	331.36594	-764.31451	379.18665	
9	0.040	313.17563	-303.02625	1417.01099	459.11624	-213.33246	1531.62354	453.43643	-368.37631	1422.98596	534.78198	-424.70422	1285.32385	494.62131	-334.65887	1146.51135	533.38129	-202.50470	1145.29102	129.09442	-139.33562	1549.27832	29.09971	-223.18185	1369.49622	-48.78162	-168.69690	1267.37659	71.63641	-65.75588	1215.51990	154.06461	25.89519	1311.03625	239.58896	-294.36459	1059.24597	289.54211	-294.54456	1052.57129	384.14670	-87.22572	1039.94800	329.90604	20.61472	761.24188	395.12509	41.31228	575.24835	350.97150	89.25604	514.95001	352.96371	98.53507	165.21855	296.78687	46.99783	133.95921	275.93793	259.35251	123.20794	381.38995	244.68462	106.97553	136.59489	-88.38744	1007.81158	168.64980	-139.60843	664.11743	126.89902	-277.74619	530.83630	181.35582	-340.37970	471.63138	225.79936	-691.42401	530.65436	278.16376	-687.21198	588.72668	223.43279	-787.24023	397.78348				
10	0.045	314.31583	-302.40408	1414.32617	459.81168	-212.31087	1528.38440	455.57227	-367.06750	1417.91333	537.15186	-420.44608	1279.28467	496.63699	-329.14639	1141.28979	534.63776	-196.71872	1141.95667	129.43689	-139.24165	1546.28931	30.04445	-226.18921	1367.74988	-48.20893	-173.93018	1265.19055	70.38963	-71.11738	1208.15100	153.32455	25.53414	1299.13855	239.00769	-294.78317	1056.83337	288.74625	-294.82748	1050.35083	384.45596	-87.28441	1038.30688	329.48254	17.46231	758.59766	395.09579	35.91665	570.84912	353.32489	80.36845	509.66635	350.84506	88.93745	159.63852	291.88776	37.20558	129.62764	276.75647	249.63412	115.06582	381.63104	231.61432	97.85441	136.99678	-87.52988	1005.40692	167.87839	-132.81204	661.21405	125.49753	-268.98456	525.95630	180.01263	-333.06329	467.76318	226.48738	-681.32532	539.80157	279.70224	-675.11859	597.08801	223.60435	-781.11414	410.03409	332.49200	-753.33917	402.43539	
11	0.050	315.13718	-301.97610	1411.24939	460.44580	-211.37657	1524.85046	457.97711	-365.68863	1412.48779	539.80664	-415.85760	1272.70728	498.71469	-323.15933	1135.71899	535.98511	-190.39351	1138.37878	129.52693	-139.10741	1543.01648	31.06751	-229.22046	1365.71326	-47.43669	-179.13033	1262.70007	69.02348	-76.25670	1200.54492	151.89166	25.48468	1287.07849	237.31567	-293.02475	1049.57678	287.99585	-295.33395	1048.10535	384.98016	-87.62363	1036.41687	328.85089	14.40199	756.62384	395.14502	30.77594	566.25616	353.46304	74.91745	503.70203	348.53436	77.66700	153.36795	287.20291	26.25298	125.15550	277.41550	238.75272	106.38122	381.60757	217.56047	87.94447	137.68730	-86.69530	1002.59723	166.23840	-126.92397	658.03418	123.84504	-260.20554	521.20764	178.98245	-325.49722	463.88647	225.20570	-669.97125	550.73718	280.98471	-662.46826	604.84521	222.90858	-773.58368	421.53262	331.93533	-745.80756	411.71658	
12	0.055	315.48511	-303.73755	1409.16833	461.37115	-210.28540	1521.08887	460.61697	-364.35794	1406.62402	542.62640	-411.14777	1265.91516	500.98413	-317.08450	1129.87830	537.15375	-183.83447	1134.37012	129.66585	-139.01915	1539.43628	32.25233	-232.43694	1363.38831	-46.57808	-184.47934	1259.97668	66.99559	-81.68293	1192.58435	150.61032	23.13215	1274.10291	236.43855	-292.97205	1045.66907	287.76605	-295.52078	1046.05566	385.51340	-88.15538	1034.23071	328.40213	12.36922	754.51917	395.55164	25.41781	561.27411	353.37387	69.50379	497.57251	345.57895	65.28609	147.41043	283.13235	14.43087	120.65707	277.97534	226.53247	97.03951	381.75900	201.95941	77.40636	138.45105	-85.98289	999.65692	164.89088	-124.53574	655.70740	121.78289	-251.34328	516.31482	178.76692	-316.77362	459.65036	225.59595	-658.02802	558.31366	281.84152	-650.10724	611.79645	222.26794	-765.12659	432.03879	330.89813	-737.53339	420.36230	
13	0.060	316.87085	-301.64337	1404.65686	462.07269	-209.15976	1517.05481	463.32538	-362.86417	1400.35449	545.78113	-406.07968	1258.66235	503.44531	-310.55637	1123.68726	538.20697	-177.21494	1129.96143	129.51382	-139.04945	1535.60986	33.39613	-235.87830	1360.71057	-45.80310	-190.20337	1256.99072	65.79719	-88.25578	1184.81824	148.88806	21.18405	1260.77661	235.76093	-292.94376	1041.46716	285.93677	-294.60321	1039.22522	386.03998	-88.67519	1031.68127	327.43881	12.42445	752.69568	395.58200	19.07170	555.22858	352.76880	63.87907	490.09622	343.72443	51.86352	140.44012	279.76749	1.46929	115.96413	277.79242	212.87434	87.18090	381.01239	186.14032	66.59952	139.29549	-85.34396	996.58533	163.60718	-118.48846	652.03741	120.16674	-241.86807	511.15829	175.42300	-306.23862	455.03119	225.96236	-645.85431	565.15002	282.66620	-636.46704	618.13098	221.36961	-755.75336	441.84384	330.03397	-728.53510	428.47736	
